<?xml version="1.0" encoding="UTF-8" standalone="no"?>
<!-- Created with Inkscape (http://www.inkscape.org/) -->

<svg
   xmlns:dc="http://purl.org/dc/elements/1.1/"
   xmlns:cc="http://creativecommons.org/ns#"
   xmlns:rdf="http://www.w3.org/1999/02/22-rdf-syntax-ns#"
   xmlns:svg="http://www.w3.org/2000/svg"
   xmlns="http://www.w3.org/2000/svg"
   xmlns:xlink="http://www.w3.org/1999/xlink"
   xmlns:sodipodi="http://sodipodi.sourceforge.net/DTD/sodipodi-0.dtd"
   xmlns:inkscape="http://www.inkscape.org/namespaces/inkscape"
   width="744.09448819"
   height="1052.3622047"
   id="svg2"
   version="1.1"
   inkscape:version="0.48.4 r9939"
   sodipodi:docname="New document 1">
  <defs
     id="defs4">
    <linearGradient
       inkscape:collect="always"
       id="linearGradient7238">
      <stop
         style="stop-color:#e8a829;stop-opacity:1;"
         offset="0"
         id="stop7240" />
      <stop
         style="stop-color:#e8a829;stop-opacity:0;"
         offset="1"
         id="stop7242" />
    </linearGradient>
    <inkscape:path-effect
       effect="spiro"
       id="path-effect7236"
       is_visible="true" />
    <inkscape:path-effect
       effect="spiro"
       id="path-effect7067"
       is_visible="true" />
    <inkscape:path-effect
       effect="spiro"
       id="path-effect7003"
       is_visible="true" />
    <linearGradient
       id="linearGradient3774">
      <stop
         style="stop-color:#ff3700;stop-opacity:1;"
         offset="0"
         id="stop3776" />
      <stop
         style="stop-color:#ffca00;stop-opacity:0.54400003;"
         offset="1"
         id="stop3778" />
    </linearGradient>
    <radialGradient
       inkscape:collect="always"
       xlink:href="#linearGradient3774"
       id="radialGradient3782"
       cx="191.42857"
       cy="760.93359"
       fx="191.42857"
       fy="760.93359"
       r="232.838"
       gradientTransform="matrix(1.0402221,0.33237332,-0.42632601,1.334264,80.900116,-1103.3344)"
       gradientUnits="userSpaceOnUse" />
    <radialGradient
       inkscape:collect="always"
       xlink:href="#linearGradient3774-4"
       id="radialGradient3782-7"
       cx="191.42857"
       cy="760.93359"
       fx="191.42857"
       fy="760.93359"
       r="232.838"
       gradientTransform="matrix(1.1392254,0.25488653,-0.26239326,1.5384695,21.461499,-1312.3985)"
       gradientUnits="userSpaceOnUse" />
    <linearGradient
       id="linearGradient3774-4">
      <stop
         style="stop-color:#ff3700;stop-opacity:1;"
         offset="0"
         id="stop3776-0" />
      <stop
         style="stop-color:#ffca00;stop-opacity:0.54400003;"
         offset="1"
         id="stop3778-9" />
    </linearGradient>
    <radialGradient
       inkscape:collect="always"
       xlink:href="#linearGradient3774-4-2"
       id="radialGradient3782-7-8"
       cx="191.42857"
       cy="760.93359"
       fx="191.42857"
       fy="760.93359"
       r="232.838"
       gradientTransform="matrix(1.2638254,0,0,1.5725125,-484.78942,-449.92968)"
       gradientUnits="userSpaceOnUse" />
    <linearGradient
       id="linearGradient3774-4-2">
      <stop
         style="stop-color:#ff3700;stop-opacity:1;"
         offset="0"
         id="stop3776-0-4" />
      <stop
         style="stop-color:#ffca00;stop-opacity:0.54400003;"
         offset="1"
         id="stop3778-9-5" />
    </linearGradient>
    <radialGradient
       r="232.838"
       fy="760.93359"
       fx="191.42857"
       cy="760.93359"
       cx="191.42857"
       gradientTransform="matrix(1.0756917,0.39399775,-0.41426357,1.4862181,-20.986348,-1272.612)"
       gradientUnits="userSpaceOnUse"
       id="radialGradient3832"
       xlink:href="#linearGradient3774-4"
       inkscape:collect="always" />
    <inkscape:path-effect
       effect="spiro"
       id="path-effect7067-7"
       is_visible="true" />
    <clipPath
       clipPathUnits="userSpaceOnUse"
       id="clipPath7230">
      <path
         sodipodi:type="arc"
         style="color:#000000;fill:#222b00;fill-opacity:1;fill-rule:evenodd;stroke:none;stroke-width:23.21999931;marker:none;visibility:visible;display:inline;overflow:visible;enable-background:accumulate"
         id="path7232"
         sodipodi:cx="-31.21838"
         sodipodi:cy="2308.1057"
         sodipodi:rx="380.35455"
         sodipodi:ry="19.750404"
         d="m 349.13617,2308.1057 a 380.35455,19.750404 0 1 1 -760.7091,0 380.35455,19.750404 0 1 1 760.7091,0 z"
         transform="translate(-1.91133,-5.7129415)" />
    </clipPath>
    <linearGradient
       inkscape:collect="always"
       xlink:href="#linearGradient7238"
       id="linearGradient7244"
       x1="-23.435944"
       y1="2421.511"
       x2="-23.710155"
       y2="2384.5586"
       gradientUnits="userSpaceOnUse" />
    <linearGradient
       inkscape:collect="always"
       xlink:href="#linearGradient7238-2"
       id="linearGradient7244-2"
       x1="-23.435944"
       y1="2421.511"
       x2="-23.710155"
       y2="2384.5586"
       gradientUnits="userSpaceOnUse" />
    <linearGradient
       inkscape:collect="always"
       id="linearGradient7238-2">
      <stop
         style="stop-color:#e8a829;stop-opacity:1;"
         offset="0"
         id="stop7240-7" />
      <stop
         style="stop-color:#e8a829;stop-opacity:0;"
         offset="1"
         id="stop7242-8" />
    </linearGradient>
    <inkscape:path-effect
       effect="spiro"
       id="path-effect7236-5"
       is_visible="true" />
    <linearGradient
       gradientTransform="matrix(0.80613894,0,0,1,-6.4030011,-75.816066)"
       y2="2384.5586"
       x2="-23.710155"
       y1="2421.511"
       x1="-23.435944"
       gradientUnits="userSpaceOnUse"
       id="linearGradient7262"
       xlink:href="#linearGradient7238-2"
       inkscape:collect="always" />
    <linearGradient
       inkscape:collect="always"
       xlink:href="#linearGradient7238-9"
       id="linearGradient7244-3"
       x1="-23.435944"
       y1="2421.511"
       x2="-23.710155"
       y2="2384.5586"
       gradientUnits="userSpaceOnUse" />
    <linearGradient
       inkscape:collect="always"
       id="linearGradient7238-9">
      <stop
         style="stop-color:#e8a829;stop-opacity:1;"
         offset="0"
         id="stop7240-4" />
      <stop
         style="stop-color:#e8a829;stop-opacity:0;"
         offset="1"
         id="stop7242-4" />
    </linearGradient>
    <inkscape:path-effect
       effect="spiro"
       id="path-effect7236-6"
       is_visible="true" />
    <linearGradient
       gradientTransform="matrix(1.1421647,0,0,1,11.267835,50.154337)"
       y2="2384.5586"
       x2="-23.710155"
       y1="2421.511"
       x1="-23.435944"
       gradientUnits="userSpaceOnUse"
       id="linearGradient7299"
       xlink:href="#linearGradient7238-9"
       inkscape:collect="always" />
    <linearGradient
       inkscape:collect="always"
       xlink:href="#linearGradient3774"
       id="linearGradient7340"
       x1="-264.93701"
       y1="-53.622375"
       x2="260.83319"
       y2="-53.622375"
       gradientUnits="userSpaceOnUse" />
  </defs>
  <sodipodi:namedview
     id="base"
     pagecolor="#ffffff"
     bordercolor="#666666"
     borderopacity="1.0"
     inkscape:pageopacity="0.0"
     inkscape:pageshadow="2"
     inkscape:zoom="0.1387333"
     inkscape:cx="-1277.4695"
     inkscape:cy="161.63366"
     inkscape:document-units="px"
     inkscape:current-layer="layer1"
     showgrid="false"
     inkscape:window-width="1440"
     inkscape:window-height="873"
     inkscape:window-x="-9"
     inkscape:window-y="-9"
     inkscape:window-maximized="1" />
  <metadata
     id="metadata7">
    <rdf:RDF>
      <cc:Work
         rdf:about="">
        <dc:format>image/svg+xml</dc:format>
        <dc:type
           rdf:resource="http://purl.org/dc/dcmitype/StillImage" />
        <dc:title></dc:title>
      </cc:Work>
    </rdf:RDF>
  </metadata>
  <g
     inkscape:label="Layer 1"
     inkscape:groupmode="layer"
     id="layer1">
    <path
       style="color:#000000;fill:#ff0000;fill-opacity:1;fill-rule:evenodd;stroke:none;stroke-width:15;marker:none;visibility:visible;display:inline;overflow:visible;enable-background:accumulate"
       d="M 93.465076,-56.864653 C 121.67873,67.443507 141.48677,284.16482 18.631276,318.15087 -162.73826,368.32393 -332.90651,86.132977 -360.66952,-99.989193 -379.44849,-225.88265 -225.22081,-145.61782 -197.81887,-445.38169 -97.695354,-178.57082 57.639336,-214.71144 93.465076,-56.864653 z"
       id="path2985"
       inkscape:connector-curvature="0"
       sodipodi:nodetypes="aaaca" />
    <path
       style="color:#000000;fill:url(#linearGradient7340);fill-opacity:1;fill-rule:evenodd;stroke:none;stroke-width:15;marker:none;visibility:visible;display:inline;overflow:visible;enable-background:accumulate"
       d="M 260.76276,21.873687 C 257.58175,148.76469 140.11884,312.96464 13.200076,311.21044 -133.60302,309.18135 -246.54021,114.55727 -263.78916,-31.243063 -280.58663,-173.22726 -107.92595,-81.252993 -79.314254,-418.46913 38.920436,-117.0716 265.41052,-163.52671 260.76276,21.873687 z"
       id="path2985-4"
       inkscape:connector-curvature="0"
       sodipodi:nodetypes="aaaca" />
    <path
       style="color:#000000;fill:url(#radialGradient3782);fill-opacity:1;fill-rule:evenodd;stroke:none;stroke-width:15;marker:none;visibility:visible;display:inline;overflow:visible;enable-background:accumulate"
       d="M 190.29861,48.319717 C 187.70088,164.12926 92.171036,318.18491 -23.597674,322.20974 -164.9629,327.12458 -286.3407,146.58617 -307.38292,6.7094367 -329.16395,-138.07851 -157.94121,-47.898683 -122.71724,-391.83825 -17.413204,-87.846953 194.336,-131.67141 190.29861,48.319717 z"
       id="path2985-1"
       inkscape:connector-curvature="0"
       sodipodi:nodetypes="aaaca" />
    <path
       style="color:#000000;fill:url(#radialGradient3832);fill-opacity:1.0;fill-rule:evenodd;stroke:none;stroke-width:15;marker:none;visibility:visible;display:inline;overflow:visible;enable-background:accumulate"
       d="M 112.34219,20.098247 C 121.71808,132.98275 77.887042,301.53651 -18.849074,325.23675 -180.25879,364.78214 -364.38955,147.85652 -400.1855,-36.846273 c -30.88703,-159.373277 152.68582,-58.09027 182.68582,-442.748097 113.78491,342.80926 312.571435,291.75883 329.84187,499.692617 z"
       id="path2985-1-8-5"
       inkscape:connector-curvature="0"
       sodipodi:nodetypes="aaaca" />
    <rect
       style="color:#000000;fill:#e9ddaf;fill-opacity:1;fill-rule:evenodd;stroke:none;stroke-width:15;marker:none;visibility:visible;display:inline;overflow:visible;enable-background:accumulate"
       id="rect6976"
       width="345.71429"
       height="1895.58"
       x="-202.85715"
       y="506.64789"
       rx="119.85727" />
    <path
       style="fill:#928b74;fill-opacity:1;stroke:none"
       d="m 140.78707,571.9121 c 1.32963,4.23478 2.04045,8.6771 3.82266,12.7422 0.73415,1.67454 1.64304,3.26733 2.39673,4.93316 0.75369,1.66583 1.35665,3.43351 1.42592,5.2606 0.10339,2.7271 -0.99464,5.37965 -2.49625,7.65845 -1.50161,2.27879 -3.4037,4.26 -5.14906,6.35796 -9.7636,11.73605 -14.45817,27.0024 -16.03052,42.18761 -1.57235,15.18521 -0.25302,30.49946 0.73988,45.73354 0.69127,10.60613 1.22398,21.22698 1.27422,31.85549 0.0764,16.16089 -0.95771,32.41414 1.27422,48.42035 2.57888,18.49434 9.46498,36.2259 11.46798,54.79144 0.77029,7.13973 0.78616,14.51127 -1.48511,21.32379 -1.13563,3.40625 -2.84388,6.63988 -5.17145,9.37387 -2.32757,2.73398 -5.28584,4.95797 -8.63408,6.25471 -3.26929,1.26616 -6.81079,1.6281 -10.19375,2.54844 -2.9865,0.81248 -5.86269,2.06369 -8.91954,2.54844 -4.18043,0.66293 -8.550872,-0.17527 -12.292437,-2.1542 -3.741566,-1.97893 -6.856519,-5.0658 -9.055127,-8.68265 -4.397218,-7.2337 -5.028141,-16.30093 -3.238693,-24.57498 1.789448,-8.27404 5.804294,-15.89315 10.225338,-23.11231 4.421045,-7.21916 9.303509,-14.17876 13.086699,-21.7517 2.04681,-4.09715 3.76354,-8.3606 5.09688,-12.74219 4.86398,-15.98391 4.51345,-33.10294 2.54844,-49.69457 -1.4625,-12.34867 -3.79154,-24.5861 -5.09688,-36.95237 -0.63024,-5.97062 -1.02746,-12.00282 -2.55572,-17.80884 -1.52827,-5.80602 -4.306856,-11.46915 -8.91226,-15.32087 -2.901554,-2.42671 -6.46058,-4.05512 -10.19027,-4.68547 -3.72969,-0.63034 -7.620496,-0.26344 -11.174086,1.03268 -3.55359,1.29612 -6.762797,3.5164 -9.245037,6.37059 -2.48224,2.8542 -4.234107,6.33505 -5.068757,10.0244 -0.769779,3.4026 -0.765506,6.92456 -1.053418,10.40126 -0.287912,3.47669 -0.910243,7.03423 -2.769242,9.98625 -2.082738,3.3073 -5.61896,5.57973 -9.425952,6.46454 -3.806991,0.8848 -7.853849,0.44749 -11.531964,-0.87445 -7.356229,-2.64389 -13.021248,-8.54089 -18.057667,-14.51908 -5.036419,-5.97819 -9.8701535,-12.35703 -16.45886427,-16.56335 -3.29435543,-2.10316 -7.01176913,-3.62 -10.89813873,-4.03496 -3.886369,-0.41497 -7.946971,0.32212 -11.253263,2.40647 -4.013633,2.53027 -6.645215,6.84455 -8.051113,11.3761 -1.405897,4.53155 -1.71017,9.32118 -1.964496,14.05899 -0.254326,4.73781 -0.475139,9.5228 -1.725604,14.09968 -1.250465,4.57688 -3.641901,8.99814 -7.473627,11.79624 -3.673672,2.68268 -8.38767,3.6574 -12.932701,3.46939 -4.54503,-0.18801 -8.974022,-1.45685 -13.28461,-2.90994 -4.310589,-1.4531 -8.56996,-3.10346 -13.008601,-4.09901 -4.438641,-0.99555 -9.125875,-1.31374 -13.507379,-0.091 -5.743678,1.60287 -10.58469,5.82905 -13.48042,11.04189 -2.89573,5.21285 -3.93602,11.33617 -3.53819,17.28603 0.79566,11.89971 7.00721,22.68407 13.353056,32.78191 6.345847,10.09784 13.131004,20.35581 15.316046,32.08022 1.092521,5.8622 0.963418,12.02514 -0.97353,17.66493 -1.936949,5.6398 -5.771205,10.71631 -10.983862,13.61238 -4.052121,2.2513 -8.82029,3.12482 -13.43264,2.66193 -4.61235,-0.46288 -9.05984,-2.23463 -12.85195,-4.90071 -7.58421,-5.33216 -12.33837,-14.0395 -14.3225,-23.09573 -1.98413,-9.05623 -1.42583,-18.4882 -0.0487,-27.65638 1.37715,-9.16818 3.55932,-18.20439 4.81915,-27.38943 1.83894,-13.40709 1.71306,-27.11987 4.96881,-40.255 2.31108,-9.32393 6.33442,-18.49888 5.76586,-28.08812 -0.28428,-4.79462 -1.80575,-9.62131 -4.92619,-13.27262 -1.56022,-1.82566 -3.50554,-3.3343 -5.70277,-4.30356 -2.19724,-0.96926 -4.64723,-1.38935 -7.03274,-1.1125 -4.00673,0.465 -7.61942,2.87648 -10.13978,6.02574 -2.52036,3.14927 -4.04377,6.98888 -5.06795,10.89031 -2.04836,7.80285 -2.3016,16.23461 -6.21663,23.28818 -2.51972,4.53969 -6.57482,8.29596 -11.46462,10.04171 -2.44489,0.87288 -5.07551,1.24027 -7.66144,1.01138 -2.58593,-0.2289 -5.12358,-1.05873 -7.31399,-2.45211 -3.20992,-2.04192 -5.59435,-5.24813 -6.97239,-8.79413 -1.37804,-3.54599 -1.79071,-7.41866 -1.56517,-11.21632 0.45109,-7.59531 3.36054,-14.78924 5.67056,-22.0388 3.26523,-10.24733 5.39081,-21.01367 4.56358,-31.73679 -1.34872,-17.48309 -10.36648,-33.48815 -13.34179,-50.76892 -1.63757,-9.51112 -1.36561,-19.5318 2.17523,-28.50986 2.57076,-6.51834 6.81382,-12.3318 12.04082,-16.99827 5.227,-4.66647 11.42154,-8.20071 17.99896,-10.6163 13.15484,-4.83118 27.60598,-5.16397 41.49571,-3.30243 27.779463,3.72308 54.224342,15.90908 82.239851,16.74049 33.3262514,0.98902 64.902671,-14.12353 97.876422,-19.058 16.486875,-2.46723 33.737099,-2.29612 49.339847,3.57402 7.80138,2.93506 15.10836,7.28859 21.1304,13.0515 6.02205,5.7629 10.73273,12.95621 13.22963,20.90867"
       id="path7065-9"
       inkscape:path-effect="#path-effect7067-7"
       inkscape:original-d="m 140.78707,571.9121 c 2.19643,2.19643 1.2039,10.12344 3.82266,12.7422 0.36085,0.36085 6.26449,7.75192 3.82265,10.19376 -3.35005,3.35005 -3.85229,10.22339 -7.64531,14.01641 -22.15336,22.15336 -15.29064,50.74707 -15.29064,87.92115 0,7.20202 -2.80692,27.77435 1.27422,31.85549 2.82205,2.82205 -1.9993,41.87331 1.27422,48.42035 7.76542,15.53084 11.46798,35.11548 11.46798,54.79144 0,20.60885 -4.93943,26.60116 -15.29064,36.95237 -1.78807,1.78807 -8.40568,0.76037 -10.19375,2.54844 -0.47658,0.47657 -7.51675,3.95123 -8.91954,2.54844 -20.79112,-20.79112 -22.16468,-59.38538 -1.27422,-80.27584 2.97318,-2.97318 2.1237,-9.76901 5.09688,-12.74219 4.83246,-4.83246 2.54844,-41.75399 2.54844,-49.69457 0,-11.43562 1.20924,-30.64624 -5.09688,-36.95237 -4.49279,-4.49279 -5.91648,-27.57821 -11.46798,-33.12971 -6.66874,-6.66874 -32.29301,9.35706 -35.67815,12.7422 -4.45951,4.45951 1.52293,15.04192 -3.82266,20.38751 -5.94723,5.94724 -72.482049,-32.26462 -77.625849,-27.12083 -8.68956,8.68956 -9.94729,42.06346 -19.21484,51.33101 -7.48159,7.48159 -37.078139,-3.63057 -52.733291,-3.63057 -7.57564,0 3.102752,121.05771 -0.3069,124.46736 -0.48155,0.48155 -38.94392,-76.83254 -35.83662,-80.38032 2.16326,-2.46992 7.01332,-32.9547 4.96881,-40.255 -4.45977,-15.92438 -10.51098,-66.18513 -11.89584,-46.7768 -2.01536,28.24453 -19.30066,38.08053 -21.42436,40.20423 -8.79845,8.79844 -9.55746,25.48357 -26.44005,8.60098 -10.4689,-10.4689 5.38843,-33.79382 -2.867,-42.04925 -5.17459,-5.17458 8.1243,-24.61536 4.56358,-31.73679 -3.05612,-6.11224 -13.34179,-42.20599 -13.34179,-50.76892 0,-1.77988 0.92421,-27.25882 2.17523,-28.50986 3.78929,-3.78929 -2.94515,-67.50734 153.775341,-14.17651 148.984849,50.69846 168.555709,5.45561 181.576299,18.47619 z"
       inkscape:connector-curvature="0"
       sodipodi:nodetypes="sssssssssssssssssssssssssssssssss" />
    <path
       style="fill:#e9ddaf;stroke:none;stroke-width:1px;stroke-linecap:butt;stroke-linejoin:miter;stroke-opacity:1;fill-opacity:1"
       d="m 137.61572,569.43295 c 1.33283,4.23376 2.04122,8.67678 3.82266,12.7422 0.73383,1.67466 1.64267,3.26748 2.39641,4.93328 0.75373,1.66579 1.35686,3.43341 1.42624,5.26048 0.10356,2.72711 -0.99444,5.37973 -2.49608,7.65852 -1.50164,2.2788 -3.4038,4.25996 -5.14923,6.35789 -9.76394,11.73582 -14.45859,27.00226 -16.03086,42.18752 -1.57227,15.18525 -0.25274,30.49952 0.74022,45.73363 0.69131,10.60612 1.224,21.22698 1.27422,31.85549 0.0764,16.16089 -0.95771,32.41414 1.27422,48.42035 2.57888,18.49434 9.46498,36.2259 11.46798,54.79144 0.77029,7.13973 0.78616,14.51127 -1.48511,21.32379 -1.13563,3.40625 -2.84388,6.63988 -5.17145,9.37387 -2.32757,2.73398 -5.28584,4.95797 -8.63408,6.25471 -3.26929,1.26616 -6.81079,1.6281 -10.19375,2.54844 -2.9865,0.81248 -5.86269,2.06369 -8.91954,2.54844 -4.180432,0.66293 -8.550872,-0.17527 -12.292437,-2.1542 -3.741566,-1.97893 -6.856519,-5.0658 -9.055128,-8.68265 -4.397217,-7.2337 -5.02814,-16.30093 -3.238692,-24.57498 1.789448,-8.27404 5.804293,-15.89315 10.225338,-23.11231 4.421044,-7.21916 9.303505,-14.17876 13.086699,-21.7517 2.04681,-4.09715 3.76354,-8.3606 5.09688,-12.74219 4.86398,-15.98391 4.51345,-33.10294 2.54844,-49.69457 -1.4625,-12.34867 -3.79152,-24.58611 -5.09688,-36.95237 -0.63025,-5.97061 -1.02748,-12.00281 -2.55575,-17.80883 -1.528271,-5.80601 -4.306847,-11.46914 -8.912229,-15.32088 -2.901553,-2.42673 -6.460583,-4.05517 -10.190285,-4.68555 -3.729701,-0.63037 -7.620528,-0.26348 -11.174136,1.03263 -3.553607,1.29612 -6.76283,3.51641 -9.245064,6.37063 -2.482235,2.85422 -4.234076,6.33511 -5.068663,10.02449 -0.76972,3.40263 -0.765362,6.9246 -1.053249,10.4013 -0.287886,3.4767 -0.910262,7.03428 -2.76941,9.98621 -2.082982,3.30733 -5.619648,5.57951 -9.426917,6.46379 -3.807269,0.88429 -7.854233,0.44623 -11.532238,-0.87647 -7.356011,-2.6454 -13.019995,-8.54382 -18.055814,-14.52291 -5.0358186,-5.9791 -9.869556,-12.35857 -16.459054,-16.56423 -3.2947489,-2.10283 -7.012724,-3.61896 -10.899382,-4.03265 -3.886659,-0.4137 -7.947249,0.32528 -11.252449,2.41164 -4.012425,2.53279 -6.640984,6.84947 -8.043782,11.38232 -1.402798,4.53286 -1.704013,9.32295 -1.956805,14.06116 -0.252791,4.73822 -0.473601,9.5238 -1.726657,14.10031 -1.253056,4.57651 -3.65024,8.99629 -7.487592,11.78722 -3.678822,2.67563 -8.395902,3.63807 -12.940459,3.4387 -4.544558,-0.19937 -8.970316,-1.47847 -13.279095,-2.93696 -4.30878,-1.45848 -8.568362,-3.10968 -13.008829,-4.0971 -4.440467,-0.98743 -9.13174,-1.28746 -13.50491,-0.0352 -5.769171,1.65199 -10.593551,5.97723 -13.416591,11.27277 -2.82303,5.29555 -3.7409,11.48269 -3.20839,17.46005 1.06502,11.95472 7.57283,22.65293 14.105686,32.72126 6.532854,10.06833 13.426154,20.40001 15.435774,32.23262 1.00481,5.91631 0.708033,12.13148 -1.465972,17.72488 -2.174006,5.59339 -6.321954,10.51251 -11.757405,13.05578 -4.315163,2.01908 -9.300953,2.4799 -13.966673,1.51639 -4.66572,-0.96352 -9.00373,-3.31559 -12.52363,-6.52614 -7.03979,-6.4211 -10.60955,-16.00118 -11.33385,-25.50195 -0.7243,-9.50077 1.14547,-19.00972 3.56994,-28.22445 2.42446,-9.21473 5.41811,-18.30375 7.01857,-27.69671 2.01557,-11.8292 1.78785,-23.948 3.69459,-35.79523 1.51101,-9.38843 4.36523,-18.8479 2.84217,-28.23438 -0.76154,-4.69323 -2.6849,-9.29049 -6.01045,-12.68859 -1.66278,-1.69906 -3.662,-3.07995 -5.8733,-3.95275 -2.21129,-0.87281 -4.63523,-1.22981 -6.99547,-0.94542 -4.1562,0.50079 -7.90565,2.97038 -10.58483,6.18702 -2.67918,3.21665 -4.38384,7.13764 -5.63979,11.13105 -1.25596,3.99342 -2.0964,8.10549 -3.25954,12.12693 -1.16313,4.02143 -2.67637,8.00144 -5.12575,11.39634 -2.41397,3.34582 -5.77143,6.07875 -9.68881,7.37329 -3.91739,1.29454 -8.39754,1.05655 -11.97292,-1.00219 -3.34868,-1.9282 -5.71738,-5.32312 -6.83337,-9.0226 -1.11598,-3.69949 -1.05388,-7.68235 -0.30392,-11.47302 1.4999,-7.58133 5.61189,-14.35026 8.41151,-21.55363 3.55205,-9.13934 4.98618,-19.12189 3.92647,-28.8698 -1.95194,-17.95533 -12.01017,-33.95604 -16.66867,-51.40603 -2.36305,-8.85162 -3.30463,-18.29701 -0.9783,-27.15835 1.79272,-6.82873 5.49745,-13.10302 10.38028,-18.20236 4.88284,-5.09935 10.92025,-9.03969 17.43319,-11.76496 13.02587,-5.45052 27.66915,-6.00234 41.65772,-4.07834 27.977123,3.84798 54.294564,17.15399 82.502135,18.51764 16.633484,0.80412 33.180011,-2.60367 49.2942802,-6.80483 16.1142688,-4.20116 32.0673608,-9.2252 48.5251538,-11.76694 16.457793,-2.54175 33.689234,-2.49243 49.311181,3.27594 7.81098,2.88418 15.13595,7.19284 21.17631,12.9238 6.04036,5.73097 10.76909,12.90603 13.26937,20.84822"
       id="path7065"
       inkscape:path-effect="#path-effect7067"
       inkscape:original-d="m 137.61572,569.43295 c 2.19643,2.19643 1.2039,10.12344 3.82266,12.7422 0.36085,0.36085 6.26449,7.75192 3.82265,10.19376 -3.35005,3.35005 -3.85229,10.22339 -7.64531,14.01641 -22.15336,22.15336 -15.29064,50.74707 -15.29064,87.92115 0,7.20202 -2.80692,27.77435 1.27422,31.85549 2.82205,2.82205 -1.9993,41.87331 1.27422,48.42035 7.76542,15.53084 11.46798,35.11548 11.46798,54.79144 0,20.60885 -4.93943,26.60116 -15.29064,36.95237 -1.78807,1.78807 -8.40568,0.76037 -10.19375,2.54844 -0.47658,0.47657 -7.51675,3.95123 -8.91954,2.54844 -20.791123,-20.79112 -22.164679,-59.38538 -1.27422,-80.27584 2.97318,-2.97318 2.1237,-9.76901 5.09688,-12.74219 4.83246,-4.83246 2.54844,-41.75399 2.54844,-49.69457 0,-11.43562 1.20924,-30.64624 -5.09688,-36.95237 -4.492793,-4.49279 -5.916484,-27.57821 -11.467979,-33.12971 -6.668744,-6.66874 -32.29301,9.35706 -35.678148,12.7422 -4.459509,4.45951 1.522932,15.04192 -3.822659,20.38751 -5.947233,5.94724 -72.482058,-32.26462 -77.625854,-27.12083 -8.689555,8.68956 -9.947285,42.06346 -19.214836,51.33101 -7.481591,7.48159 -37.078147,-3.63057 -52.733293,-3.63057 -7.575641,0 3.102752,121.05771 -0.306898,124.46736 -0.48155,0.48155 -27.235643,-86.34324 -27.235643,-86.43286 0,-2.8744 3.69459,-28.21405 3.69459,-35.79523 0,-15.28727 -14.65219,-65.22947 -16.03705,-45.82114 -2.01536,28.24453 -22.48621,38.71764 -24.60991,40.84134 -8.79845,8.79844 -4.77914,23.25369 -21.66173,6.3711 -10.4689,-10.4689 9.52965,-33.79382 1.27422,-42.04925 -5.17459,-5.17458 7.48719,-21.74837 3.92647,-28.8698 -3.05612,-6.11224 -16.66867,-42.8431 -16.66867,-51.40603 0,-1.77988 -2.22932,-25.90731 -0.9783,-27.15835 3.78929,-3.78929 -4.74717,-68.85885 151.973325,-15.52802 148.984845,50.69846 168.555705,5.45561 181.576295,18.47619 z"
       inkscape:connector-curvature="0"
       sodipodi:nodetypes="sssssssssssssssssssssssssssssssss" />
    <path
       transform="translate(-19.192898,-9.5964492)"
       style="color:#000000;fill:#928b74;fill-opacity:1;fill-rule:evenodd;stroke:none;stroke-width:15;marker:none;visibility:visible;display:inline;overflow:visible;enable-background:accumulate"
       d="m 105.05587,570.51941 c -9.17672,25.7504 -53.479833,49.49747 -119.450543,49.49747 -65.970711,0 -117.358937,-22.2409 -119.450537,-49.49747 -2.79475,-36.41965 50.422884,-46.88473 119.450537,-49.49748 89.194116,-3.37607 131.210413,16.49862 119.450543,49.49748 z"
       id="path6978"
       inkscape:connector-curvature="0"
       sodipodi:nodetypes="sssss" />
    <path
       style="color:#000000;fill:#dbd1ac;fill-opacity:1;fill-rule:evenodd;stroke:none;stroke-width:15;marker:none;visibility:visible;display:inline;overflow:visible;enable-background:accumulate"
       d="m 84.767413,562.09816 c -8.830461,22.87086 -51.461921,43.96241 -114.943401,43.96241 -63.481474,0 -112.930702,-19.75381 -114.943382,-43.96241 -2.6893,-32.34702 48.520308,-41.64184 114.943382,-43.96242 85.828617,-2.99854 126.259543,14.65366 114.943401,43.96242 z"
       id="path6978-1"
       inkscape:connector-curvature="0"
       sodipodi:nodetypes="sssss" />
    <path
       style="fill:none;stroke:#000000;stroke-width:23.21999999999999900;stroke-linecap:round;stroke-linejoin:miter;stroke-opacity:1;stroke-miterlimit:4;stroke-dasharray:none"
       d="M -41.861347,567.42897 C 17.691549,503.31829 -70.339775,456.92571 -20.76542,402.43395"
       id="path7021"
       inkscape:connector-curvature="0" />
    <path
       style="color:#000000;fill:#dbd1ac;fill-opacity:0.7773109;fill-rule:evenodd;stroke:none;stroke-width:15;marker:none;visibility:visible;display:inline;overflow:visible;enable-background:accumulate"
       d="m -22.253852,568.97398 c -11.633444,12.21691 -23.792246,18.08742 -30.631973,11.90508 -9.069984,-8.19824 0.667806,-22.82261 11.225934,-39.07369 6.145882,-9.45975 8.231463,-12.46159 9.551757,-21.9568 0.623007,-4.48051 0.962356,-17.62586 1.77265,-20.71839 3.412856,-13.02535 8.844552,-10.85839 19.307577,30.77009 2.9439584,11.71291 3.6821847,23.41787 -11.225945,39.07371 z"
       id="path6978-1-2"
       inkscape:connector-curvature="0"
       sodipodi:nodetypes="sssssss" />
    <g
       id="g7170"
       transform="matrix(1,0,0,1.5110468,-1.1511,-1154.3912)">
      <rect
         rx="119.85727"
         y="2258.9221"
         x="-316.00647"
         height="49.820518"
         width="568.30194"
         id="rect7090"
         style="color:#000000;fill:#ffd42a;fill-opacity:1;fill-rule:evenodd;stroke:none;stroke-width:23.21999931;marker:none;visibility:visible;display:inline;overflow:visible;enable-background:accumulate" />
      <path
         transform="matrix(0.78702036,-0.02916789,0.07055231,0.1557001,-231.9505,1914.6833)"
         d="m -52.243001,2427.2451 -107.573229,73.6687 -128.1574,-23.9742 -73.66869,-107.5732 23.97413,-128.1574 107.57323,-73.6687 128.15739,23.9742 73.668697,107.5732 z"
         inkscape:randomized="0"
         inkscape:rounded="0"
         inkscape:flatsided="true"
         sodipodi:arg2="0.97032861"
         sodipodi:arg1="0.57762953"
         sodipodi:r2="167.0771"
         sodipodi:r1="170.35034"
         sodipodi:cy="2334.2271"
         sodipodi:cx="-194.9556"
         sodipodi:sides="8"
         id="path7092"
         style="color:#000000;fill:#ffd42a;fill-opacity:1;fill-rule:evenodd;stroke:none;stroke-width:23.21999931;marker:none;visibility:visible;display:inline;overflow:visible;enable-background:accumulate"
         sodipodi:type="star" />
      <path
         transform="matrix(-0.78702036,-0.02912017,-0.07055231,0.15544538,162.8964,1915.328)"
         d="m -52.243001,2427.2451 -107.573229,73.6687 -128.1574,-23.9742 -73.66869,-107.5732 23.97413,-128.1574 107.57323,-73.6687 128.15739,23.9742 73.668697,107.5732 z"
         inkscape:randomized="0"
         inkscape:rounded="0"
         inkscape:flatsided="true"
         sodipodi:arg2="0.97032861"
         sodipodi:arg1="0.57762953"
         sodipodi:r2="167.0771"
         sodipodi:r1="170.35034"
         sodipodi:cy="2334.2271"
         sodipodi:cx="-194.9556"
         sodipodi:sides="8"
         id="path7092-5"
         style="color:#000000;fill:#ffd42a;fill-opacity:1;fill-rule:evenodd;stroke:none;stroke-width:23.21999931;marker:none;visibility:visible;display:inline;overflow:visible;enable-background:accumulate"
         sodipodi:type="star" />
    </g>
    <g
       id="g7165"
       transform="matrix(1,0,0,1.8280731,0,-1903.8228)">
      <rect
         rx="144.10857"
         y="2299.1631"
         x="-374.11066"
         height="67.642937"
         width="683.28918"
         id="rect7090-5"
         style="color:#000000;fill:#ffd42a;fill-opacity:1;fill-rule:evenodd;stroke:none;stroke-width:23.21999931;marker:none;visibility:visible;display:inline;overflow:visible;enable-background:accumulate" />
      <path
         transform="matrix(0.94626195,-0.03960219,0.0848275,0.21139908,-273.04723,1831.7788)"
         d="m -52.243001,2427.2451 -107.573229,73.6687 -128.1574,-23.9742 -73.66869,-107.5732 23.97413,-128.1574 107.57323,-73.6687 128.15739,23.9742 73.668697,107.5732 z"
         inkscape:randomized="0"
         inkscape:rounded="0"
         inkscape:flatsided="true"
         sodipodi:arg2="0.97032861"
         sodipodi:arg1="0.57762953"
         sodipodi:r2="167.0771"
         sodipodi:r1="170.35034"
         sodipodi:cy="2334.2271"
         sodipodi:cx="-194.9556"
         sodipodi:sides="8"
         id="path7092-4"
         style="color:#000000;fill:#ffd42a;fill-opacity:1;fill-rule:evenodd;stroke:none;stroke-width:23.21999931;marker:none;visibility:visible;display:inline;overflow:visible;enable-background:accumulate"
         sodipodi:type="star" />
      <path
         transform="matrix(-0.94626195,-0.0395374,-0.0848275,0.21105324,201.69093,1832.6542)"
         d="m -52.243001,2427.2451 -107.573229,73.6687 -128.1574,-23.9742 -73.66869,-107.5732 23.97413,-128.1574 107.57323,-73.6687 128.15739,23.9742 73.668697,107.5732 z"
         inkscape:randomized="0"
         inkscape:rounded="0"
         inkscape:flatsided="true"
         sodipodi:arg2="0.97032861"
         sodipodi:arg1="0.57762953"
         sodipodi:r2="167.0771"
         sodipodi:r1="170.35034"
         sodipodi:cy="2334.2271"
         sodipodi:cx="-194.9556"
         sodipodi:sides="8"
         id="path7092-5-0"
         style="color:#000000;fill:#ffd42a;fill-opacity:1;fill-rule:evenodd;stroke:none;stroke-width:23.21999931;marker:none;visibility:visible;display:inline;overflow:visible;enable-background:accumulate"
         sodipodi:type="star" />
    </g>
    <g
       id="g7160"
       transform="matrix(1,0,0,1.4516752,2.5484392,-1061.3044)">
      <rect
         rx="171.27002"
         y="2366.6968"
         x="-437.8981"
         height="67.642937"
         width="812.07489"
         id="rect7090-5-3"
         style="color:#000000;fill:#ffd42a;fill-opacity:1;fill-rule:evenodd;stroke:none;stroke-width:23.21999931;marker:none;visibility:visible;display:inline;overflow:visible;enable-background:accumulate" />
      <path
         transform="matrix(1.1246125,-0.03960219,0.10081571,0.21139908,-317.78634,1899.3123)"
         d="m -52.243001,2427.2451 -107.573229,73.6687 -128.1574,-23.9742 -73.66869,-107.5732 23.97413,-128.1574 107.57323,-73.6687 128.15739,23.9742 73.668697,107.5732 z"
         inkscape:randomized="0"
         inkscape:rounded="0"
         inkscape:flatsided="true"
         sodipodi:arg2="0.97032861"
         sodipodi:arg1="0.57762953"
         sodipodi:r2="167.0771"
         sodipodi:r1="170.35034"
         sodipodi:cy="2334.2271"
         sodipodi:cx="-194.9556"
         sodipodi:sides="8"
         id="path7092-4-4"
         style="color:#000000;fill:#ffd42a;fill-opacity:1;fill-rule:evenodd;stroke:none;stroke-width:23.21999931;marker:none;visibility:visible;display:inline;overflow:visible;enable-background:accumulate"
         sodipodi:type="star" />
      <path
         transform="matrix(-1.1246125,-0.0395374,-0.10081571,0.21105324,246.43004,1900.1877)"
         d="m -52.243001,2427.2451 -107.573229,73.6687 -128.1574,-23.9742 -73.66869,-107.5732 23.97413,-128.1574 107.57323,-73.6687 128.15739,23.9742 73.668697,107.5732 z"
         inkscape:randomized="0"
         inkscape:rounded="0"
         inkscape:flatsided="true"
         sodipodi:arg2="0.97032861"
         sodipodi:arg1="0.57762953"
         sodipodi:r2="167.0771"
         sodipodi:r1="170.35034"
         sodipodi:cy="2334.2271"
         sodipodi:cx="-194.9556"
         sodipodi:sides="8"
         id="path7092-5-0-1"
         style="color:#000000;fill:#ffd42a;fill-opacity:1;fill-rule:evenodd;stroke:none;stroke-width:23.21999931;marker:none;visibility:visible;display:inline;overflow:visible;enable-background:accumulate"
         sodipodi:type="star" />
    </g>
    <path
       style="fill:url(#linearGradient7244);stroke:none;stroke-width:1px;stroke-linecap:butt;stroke-linejoin:miter;stroke-opacity:1;fill-opacity:1"
       d="m -411.57293,2382.6474 59.88832,19.1133 615.44807,5.0969 81.55005,-21.6617 12.7422,7.6453 -81.55006,29.3071 -651.12621,-5.0969 -56.06567,-25.4844 19.1133,-8.9196"
       id="path7234"
       inkscape:path-effect="#path-effect7236"
       inkscape:original-d="m -411.57293,2382.6474 59.88832,19.1133 615.44807,5.0969 81.55005,-21.6617 12.7422,7.6453 -81.55006,29.3071 -651.12621,-5.0969 -56.06567,-25.4844 z"
       inkscape:connector-curvature="0" />
    <path
       style="fill:url(#linearGradient7262);fill-opacity:1;stroke:none"
       d="m -338.18796,2306.8314 48.27831,19.1133 496.13665,5.0969 65.74067,-21.6617 10.27198,7.6453 -65.74067,29.3071 -524.8982,-5.0969 -45.19672,-25.4844 15.40798,-8.9196"
       id="path7234-8"
       inkscape:path-effect="#path-effect7236-5"
       inkscape:original-d="m -338.18796,2306.8314 48.27831,19.1133 496.13665,5.0969 65.74067,-21.6617 10.27198,7.6453 -65.74067,29.3071 -524.8982,-5.0969 -45.19672,-25.4844 z"
       inkscape:connector-curvature="0" />
    <path
       style="fill:url(#linearGradient7299);fill-opacity:1;stroke:none"
       d="m -458.81628,2432.8017 68.40233,19.1133 702.94312,5.0969 93.14359,-21.6617 14.55369,7.6453 -93.1436,29.3071 -743.69343,-5.0969 -64.03623,-25.4844 21.83053,-8.9196"
       id="path7234-9"
       inkscape:path-effect="#path-effect7236-6"
       inkscape:original-d="m -458.81628,2432.8017 68.40233,19.1133 702.94312,5.0969 93.14359,-21.6617 14.55369,7.6453 -93.1436,29.3071 -743.69343,-5.0969 -64.03623,-25.4844 z"
       inkscape:connector-curvature="0" />
    <path
       sodipodi:type="arc"
       style="color:#000000;fill:#e9ddaf;fill-opacity:1;fill-rule:evenodd;stroke:none;stroke-width:23.21999931;marker:none;visibility:visible;display:inline;overflow:visible;enable-background:accumulate"
       id="path7320"
       sodipodi:cx="-28.832298"
       sodipodi:cy="2271.8784"
       sodipodi:rx="175.69682"
       sodipodi:ry="13.965645"
       d="m 146.86452,2271.8784 a 175.69682,13.965645 0 1 1 -351.39364,0 175.69682,13.965645 0 1 1 351.39364,0 z"
       transform="matrix(0.98974359,0,0,1.9156327,-2.0977345,-2093.2709)" />
  </g>
</svg>
